<svg width="100.00" height="100.00" viewBox="0.00 0.00 100.00 100.00" xmlns="http://www.w3.org/2000/svg" xmlns:xlink="http://www.w3.org/1999/xlink">
<g stroke-linecap="round" transform="translate(2.00, 1.00)" id="Layer_1">
<path d="M15.49,30.09 C16.02,25.92 16.72,20.24 18.29,17.94 C20.24,15.17 26.08,11.89 29.05,10.95 C32.24,9.96 40.26,8.60 44.22,8.34 C48.23,8.10 56.11,8.48 60.26,9.09 C65.08,9.82 71.75,11.91 74.61,13.76 C76.02,14.71 78.33,16.99 79.31,18.43 C80.26,19.87 81.58,23.21 81.95,25.08 C82.32,27.16 82.27,30.82 81.79,32.58 C81.27,34.35 79.39,37.42 77.97,38.90 C73.62,43.29 63.46,46.61 49.48,50.62 C48.73,50.83 47.98,51.05 47.23,51.27 C47.23,51.27 47.07,62.69 47.07,62.69" fill="none" stroke-width="15.00" stroke-opacity="1.00" stroke-linejoin="round"/>
<path d="M37.28,80.59 C35.62,81.91 34.04,85.16 33.97,87.52 C33.98,89.89 35.48,93.14 37.12,94.47 C38.35,95.40 41.98,96.50 44.12,96.67 C46.48,96.81 51.04,96.37 52.91,95.81 C54.67,95.22 57.59,92.97 58.36,91.48 C59.13,89.84 59.14,85.33 58.37,83.68 C57.61,82.18 54.73,79.93 52.99,79.33 C51.13,78.76 46.61,78.29 44.27,78.42 C42.15,78.59 38.53,79.66 37.28,80.59 Z" stroke-width="5.00" stroke-opacity="1.00" stroke-linejoin="round"/>
</g>
</svg>
