<?xml version="1.0" encoding="UTF-8" standalone="no"?>
<!DOCTYPE svg PUBLIC "-//W3C//DTD SVG 1.1//EN" "http://www.w3.org/Graphics/SVG/1.1/DTD/svg11.dtd">
<svg width="100.00" height="100.00" viewBox="0.00 0.00 100.00 100.00" xmlns="http://www.w3.org/2000/svg" xmlns:xlink="http://www.w3.org/1999/xlink">
<g stroke-linecap="round">
<path d="M95.84,34.52 C95.84,34.52 69.86,42.28 69.86,42.28 C67.63,47.85 60.31,66.17 58.04,70.23 C55.79,74.18 50.51,80.88 47.46,83.65 C44.08,86.66 36.78,91.02 32.64,92.51 C28.42,93.98 19.72,95.33 16.41,94.99 C14.78,94.80 11.99,93.92 10.83,93.24 C9.70,92.53 7.89,90.63 7.21,89.43 C5.92,86.99 5.24,80.12 5.85,75.67 C6.57,70.86 9.51,62.35 11.78,58.62 C13.99,55.08 19.76,49.12 23.00,46.79 C29.49,42.23 39.26,39.04 53.44,34.92 C56.09,34.15 59.77,33.09 60.79,32.79 C60.79,32.79 67.70,4.53 67.70,4.53 C67.70,4.53 95.84,34.52 95.84,34.52 Z" stroke-width="10.00" stroke-opacity="1.00" stroke-linejoin="round"/>
<path class="detail" d="M21.82,71.49 C20.77,70.43 17.47,69.57 15.73,69.83 C14.18,70.13 12.15,72.12 11.75,73.74 C11.35,75.61 11.96,79.10 12.95,80.20 C14.00,81.25 17.52,82.08 19.40,81.80 C21.05,81.49 23.07,79.50 23.38,77.89 C23.64,76.10 22.82,72.58 21.82,71.49 Z" stroke-width="5.00" stroke-opacity="1.00" stroke-linejoin="round"/>
<path class="detail" d="M39.22,59.52 C36.35,56.60 30.25,52.40 25.83,50.79 C23.95,50.12 20.46,49.34 19.49,49.08 C17.70,48.66 16.29,49.89 15.18,50.97 C14.01,52.19 13.70,54.75 14.84,56.03 C16.02,57.25 24.92,60.13 26.23,60.75 C29.59,62.37 35.59,68.43 37.53,72.17 C38.26,73.61 42.22,85.41 43.44,86.58 C44.51,87.54 47.68,86.71 48.79,85.60 C49.83,84.48 50.55,82.31 50.07,80.39 C49.04,76.43 45.96,69.17 44.14,66.00 C43.08,64.21 40.64,61.01 39.22,59.52 Z" stroke-width="5.00" stroke-opacity="1.00" stroke-linejoin="round"/>
</g>
</svg>
