<?xml version="1.0" encoding="UTF-8" standalone="no"?>
<!DOCTYPE svg PUBLIC "-//W3C//DTD SVG 1.1//EN" "http://www.w3.org/Graphics/SVG/1.1/DTD/svg11.dtd">
<svg width="100.00" height="100.00" viewBox="0.00 0.00 100.00 100.00" xmlns="http://www.w3.org/2000/svg" xmlns:xlink="http://www.w3.org/1999/xlink">
<g stroke-linecap="round" id="Layer_1">
<path d="M37.42,15.84 C36.26,16.26 33.30,17.19 32.22,17.53 C32.22,17.53 24.51,9.18 24.51,9.18 C24.51,9.18 10.83,20.91 10.83,20.91 C10.83,20.91 18.11,29.59 18.11,29.59 C18.11,29.59 14.29,39.46 14.29,39.46 C14.29,39.46 2.46,39.42 2.46,39.42 C2.46,39.42 2.64,57.47 2.64,57.47 C2.64,57.47 13.42,57.31 13.42,57.31 C13.42,57.31 16.76,68.27 16.76,68.27 C16.76,68.27 8.57,76.15 8.57,76.15 C8.57,76.15 21.31,89.72 21.31,89.72 C21.31,89.72 30.66,82.26 30.66,82.26 C30.66,82.26 40.86,85.94 40.86,85.94 C40.86,85.94 40.88,97.83 40.88,97.83 C40.88,97.83 58.64,97.87 58.64,97.87 C58.64,97.87 58.63,86.52 58.63,86.52 C58.63,86.52 70.30,81.94 70.30,81.94 C70.30,81.94 77.53,90.02 77.53,90.02 C77.53,90.02 90.24,77.84 90.24,77.84 C90.24,77.84 82.67,69.40 82.67,69.40 C82.67,69.40 85.91,59.17 85.91,59.17 C85.91,59.17 97.49,59.08 97.49,59.08 C97.49,59.08 97.71,41.00 97.71,41.00 C97.71,41.00 86.41,40.80 86.41,40.80 C86.41,40.80 82.73,30.71 82.73,30.71 C82.73,30.71 90.65,22.56 90.65,22.56 C90.65,22.56 79.03,9.50 79.03,9.50 C79.03,9.50 71.49,17.34 71.49,17.34 C71.49,17.34 61.47,14.03 61.47,14.03 C61.47,14.03 61.63,2.61 61.63,2.61 C61.63,2.61 43.09,2.51 43.09,2.51 C43.09,2.51 42.55,13.83 42.55,13.83 C41.49,14.26 38.59,15.42 37.42,15.84 Z"  stroke-width="5.00" stroke-opacity="1.00" stroke-linejoin="round"/>
<path class="detail" d="M41.55,41.04 C40.52,42.08 39.13,44.91 38.78,46.56 C38.46,48.33 38.47,52.44 38.81,54.20 C39.16,55.84 40.59,58.65 41.63,59.67 C43.04,60.94 46.27,62.31 48.52,62.51 C50.83,62.67 55.39,62.01 57.11,61.23 C58.72,60.45 61.29,57.84 62.02,56.24 C62.73,54.54 63.19,50.14 62.92,47.87 C62.62,45.73 61.11,42.47 59.83,41.16 C58.50,39.91 55.16,38.42 52.98,38.11 C47.89,37.53 42.94,39.74 41.55,41.04 Z"  stroke-width="5.00" stroke-opacity="1.00" stroke-linejoin="round"/>
</g>
</svg>
