<svg width="120.00" height="120.00" viewBox="0.00 0.00 500.00 500.00" xmlns="http://www.w3.org/2000/svg" xmlns:xlink="http://www.w3.org/1999/xlink">
<g stroke-linecap="round" transform="translate(-10.00, -13.00)" id="Layer_2">
<path d="M261.03,147.65 C262.05,141.50 266.54,127.47 269.72,120.52 C272.92,113.57 281.33,99.34 286.56,92.05 C291.97,84.53 303.11,71.90 309.03,66.59 C314.96,61.31 327.34,52.91 333.93,49.71 C340.51,46.54 354.94,42.49 362.41,41.72 C369.89,40.97 385.48,41.95 393.57,43.67 C401.54,45.39 417.06,50.63 424.15,54.00 C431.22,57.39 444.65,65.99 450.19,70.68 C455.51,75.21 466.12,86.89 470.69,93.24 C475.24,99.60 483.25,113.82 486.65,121.53 C490.07,129.38 494.51,144.57 495.57,152.02 C496.59,159.47 496.27,174.24 494.94,181.15 C493.56,188.17 488.26,202.45 484.49,209.29 C480.69,216.12 470.86,229.28 464.68,235.81 C458.70,242.10 446.39,253.29 440.35,257.92 C434.31,262.53 421.75,270.31 416.35,272.79 C411.67,274.91 402.49,278.10 397.93,279.20 C393.37,280.26 384.34,281.38 379.86,281.43 C374.26,281.47 342.10,277.07 336.00,276.25 C319.62,293.69 279.56,336.32 255.89,361.52 C226.98,392.28 174.86,447.76 151.64,472.47 C142.77,481.92 127.63,498.04 121.36,504.71 C121.36,504.71 79.75,467.04 79.75,467.04 C79.75,467.04 95.14,448.20 95.14,448.20 C95.14,448.20 33.28,393.58 33.28,393.58 C33.28,393.58 72.01,349.01 72.01,349.01 C72.01,349.01 107.72,395.75 107.72,395.75 C107.72,395.75 133.73,360.18 133.73,360.18 C133.73,360.18 86.25,334.28 86.25,334.28 C86.25,334.28 131.93,288.78 131.93,288.78 C131.93,288.78 187.12,348.99 187.12,348.99 C206.74,326.45 250.96,275.66 275.55,247.40 C279.54,242.81 285.19,236.33 286.84,234.44 C284.71,230.28 279.63,220.37 276.68,214.62 C272.89,207.27 264.84,191.45 262.61,183.26 C261.47,179.00 260.13,170.29 259.92,165.84 C259.73,161.38 260.28,152.30 261.03,147.65 Z"  stroke-width="5.00" stroke-opacity="1.00" stroke-linejoin="round"/>
<path class="detail" d="M408.61,115.56 C405.33,113.45 398.40,110.18 394.66,109.00 C390.91,107.83 382.93,106.41 378.67,106.14 C374.22,105.90 366.11,106.48 362.25,107.34 C358.41,108.22 351.23,111.12 347.96,113.10 C344.79,115.05 339.21,119.74 336.77,122.40 C334.30,125.12 329.84,131.42 327.84,134.99 C325.87,138.57 322.26,146.87 321.05,150.75 C319.82,154.77 318.53,162.57 318.46,166.33 C318.42,170.09 319.50,177.31 320.62,180.84 C321.70,184.13 324.93,190.51 327.05,193.55 C329.19,196.57 334.50,202.35 337.67,205.09 C340.88,207.84 348.29,213.03 351.95,215.07 C355.63,217.09 362.92,220.03 366.54,220.96 C370.15,221.86 377.32,222.55 380.87,222.36 C384.42,222.13 391.41,220.58 394.85,219.25 C398.28,217.90 405.05,214.10 408.37,211.65 C411.64,209.21 418.17,203.18 421.00,200.06 C423.76,196.99 428.32,190.74 430.13,187.57 C431.90,184.39 434.53,177.88 435.32,174.68 C436.21,170.97 436.76,163.73 436.43,160.04 C436.07,156.35 434.14,148.88 432.58,145.17 C431.06,141.61 426.85,134.19 424.59,131.03 C420.03,124.71 411.62,117.53 408.61,115.56 Z" fill="none" stroke-width="5.00" stroke-opacity="1.00" stroke-linejoin="round"/>
</g>
</svg>
