<svg width="100.00" height="100.00" viewBox="0.00 0.00 100.00 100.00" xmlns="http://www.w3.org/2000/svg" xmlns:xlink="http://www.w3.org/1999/xlink">
<g stroke-linecap="round" id="Layer_2">
<path d="M51.23,96.11 C50.77,95.20 49.30,92.28 48.97,91.48 C47.77,88.55 48.77,83.35 49.45,81.32 C49.45,81.32 95.79,52.93 95.79,52.93 C95.79,52.93 49.79,9.90 49.79,9.90 C49.79,9.90 4.65,31.11 4.65,31.11 C3.19,38.24 3.82,43.49 4.63,48.02 C4.63,48.02 51.23,96.11 51.23,96.11 Z" stroke-width="7.50" stroke-opacity="1.00" stroke-linejoin="round"/>
<path  d="M52.11,96.72 C52.11,96.72 96.96,68.97 96.96,68.97" stroke-width="7.50" stroke-opacity="1.00" stroke-linejoin="round"/>
<path class="detail" d="M17.51,29.27 C17.51,29.27 29.35,39.63 29.35,39.63 C29.35,39.63 59.67,24.13 59.67,24.13 C59.67,24.13 49.57,13.59 49.57,13.59 C49.57,13.59 17.51,29.27 17.51,29.27 Z" stroke-width="5.00" stroke-opacity="1.00" stroke-linejoin="round"/>
</g>
</svg>
